HIERARCHY
ROOT root
{
	OFFSET 0.000000 0.000000 0.000000
	CHANNELS 6 Xposition Yposition Zposition Zrotation Yrotation Xrotation
	JOINT lhip
	{
		OFFSET 0.058581 -0.082280 -0.017664
		CHANNELS 3 Zrotation Yrotation Xrotation
		JOINT lknee
		{
			OFFSET 0.043451 -0.386469 0.008037
			CHANNELS 3 Zrotation Yrotation Xrotation
			JOINT lankle
			{
				OFFSET -0.014790 -0.426874 -0.037428
				CHANNELS 3 Zrotation Yrotation Xrotation
				JOINT ltoe
				{
					OFFSET 0.041054 -0.060286 0.122042
					CHANNELS 3 Zrotation Yrotation Xrotation
					End Site
					{
						OFFSET 0.000000 0.000000 0.000000
					}
				}
			}
		}
	}
	JOINT rhip
	{
		OFFSET -0.060310 -0.090513 -0.013543
		CHANNELS 3 Zrotation Yrotation Xrotation
		JOINT rknee
		{
			OFFSET -0.043257 -0.383688 -0.004843
			CHANNELS 3 Zrotation Yrotation Xrotation
			JOINT rankle
			{
				OFFSET 0.019056 -0.420046 -0.034562
				CHANNELS 3 Zrotation Yrotation Xrotation
				JOINT rtoe
				{
					OFFSET -0.034840 -0.062106 0.130323
					CHANNELS 3 Zrotation Yrotation Xrotation
					End Site
					{
						OFFSET 0.000000 0.000000 0.000000
					}
				}
			}
		}
	}
	JOINT lowerback
	{
		OFFSET 0.004439 0.124404 -0.038385
		CHANNELS 3 Zrotation Yrotation Xrotation
		JOINT upperback
		{
			OFFSET 0.004488 0.137956 0.026820
			CHANNELS 3 Zrotation Yrotation Xrotation
			JOINT chest
			{
				OFFSET -0.002265 0.056032 0.002855
				CHANNELS 3 Zrotation Yrotation Xrotation
				JOINT lowerneck
				{
					OFFSET -0.013390 0.211636 -0.033468
					CHANNELS 3 Zrotation Yrotation Xrotation
					JOINT upperneck
					{
						OFFSET 0.010113 0.088937 0.050410
						CHANNELS 3 Zrotation Yrotation Xrotation
						End Site
						{
							OFFSET 0.000000 0.000000 0.000000
						}
					}
				}
				JOINT lclavicle
				{
					OFFSET 0.071702 0.114000 -0.018898
					CHANNELS 3 Zrotation Yrotation Xrotation
					JOINT lshoulder
					{
						OFFSET 0.122921 0.045205 -0.019046
						CHANNELS 3 Zrotation Yrotation Xrotation
						JOINT lelbow
						{
							OFFSET 0.255332 -0.015649 -0.022946
							CHANNELS 3 Zrotation Yrotation Xrotation
							JOINT lwrist
							{
								OFFSET 0.265709 0.012698 -0.007375
								CHANNELS 3 Zrotation Yrotation Xrotation
								End Site
								{
									OFFSET 0.000000 0.000000 0.000000
								}
							}
						}
					}
				}
				JOINT rclavicle
				{
					OFFSET -0.082954 0.112472 -0.023707
					CHANNELS 3 Zrotation Yrotation Xrotation
					JOINT rshoulder
					{
						OFFSET -0.113228 0.046853 -0.008472
						CHANNELS 3 Zrotation Yrotation Xrotation
						JOINT relbow
						{
							OFFSET -0.260127 -0.014369 -0.031269
							CHANNELS 3 Zrotation Yrotation Xrotation
							JOINT rwrist
							{
								OFFSET -0.269108 0.006794 -0.006027
								CHANNELS 3 Zrotation Yrotation Xrotation
								End Site
								{
									OFFSET 0.000000 0.000000 0.000000
								}
							}
						}
					}
				}
			}
		}
	}
}
MOTION
Frames: 10
Frame Time: 0.033333
-0.278992 0.306272 0.984585 174.153833 -1.720331 88.767138 -3.895633 -6.827239 -6.913228 -7.280541 -10.426479 11.475280 -0.020627 3.734511 -21.058285 0.000000 -0.000000 0.000000 -13.907429 -2.915675 -17.995851 -5.102684 -7.743671 40.576882 3.769147 -9.673877 -15.948330 0.000000 -0.000000 0.000000 -1.214209 1.134803 9.600543 -0.898133 -0.769194 0.290856 -2.146408 -0.798231 2.218674 0.779211 4.738250 0.933468 -2.270523 2.287933 10.420043 -24.495624 -2.503990 0.933534 -51.936631 -6.683451 28.335075 -139.339652 -70.033539 167.315021 6.050490 -9.975551 -11.702639 21.381145 5.443791 0.636368 53.558003 6.365456 25.074884 -150.719331 80.604059 -143.366844 -3.051562 8.509110 -38.857203 
-0.269621 0.303449 0.986915 177.777359 -1.882405 89.052348 -2.591109 -5.773165 -6.389093 -7.707453 -11.076679 9.087961 -1.940685 -0.224002 -19.705087 0.000000 -0.000000 0.000000 -13.506113 -3.508430 -16.037838 -5.269837 -7.221570 34.118934 3.665638 -7.284703 -12.660750 0.000000 -0.000000 0.000000 -1.182000 0.286211 8.556904 -1.333738 -2.582681 1.060035 -2.168635 -1.091465 1.732007 0.221467 4.300896 1.486620 -1.208718 1.795508 10.034164 -23.870343 -3.265771 0.430690 -53.933294 -7.981518 28.200866 -140.154416 -69.408741 168.621801 1.102306 -11.294972 -15.157729 19.855993 5.425602 0.434015 52.844783 7.362761 23.620855 -153.854509 76.319223 -144.564850 -3.133725 7.966543 -39.483608 
-0.260156 0.300592 0.988560 -179.163670 -2.153591 88.962620 -1.636358 -5.411627 -5.732804 -8.100929 -11.987820 7.218341 -3.731455 -2.879449 -18.221510 0.000000 -0.000000 0.000000 -12.927989 -3.575612 -14.373997 -5.653503 -7.536471 31.199803 4.274644 -6.687076 -11.164370 0.000000 -0.000000 0.000000 -1.181966 -0.328525 8.379790 -1.671107 -3.750046 1.128779 -2.347788 -1.406210 1.502523 0.193888 4.200891 1.621808 -0.866002 1.084155 9.909210 -23.204718 -3.715516 -0.317174 -55.603899 -9.057341 28.371322 -140.836450 -69.187113 169.818296 -1.631280 -11.777503 -17.327183 18.387061 5.139258 -0.612189 52.240760 8.693742 22.353948 -150.965047 72.639462 -139.118696 -3.471426 6.233118 -36.072180 
-0.249995 0.297954 0.988770 -176.801020 -2.711203 89.029978 -1.486257 -5.664866 -5.472934 -7.726582 -12.494842 5.818134 -4.207709 -4.212307 -17.471705 0.000000 -0.000000 0.000000 -12.345898 -3.929166 -13.490371 -6.548318 -8.767286 31.301736 4.591647 -8.258998 -12.620237 0.000000 -0.000000 0.000000 -1.742521 -0.480758 7.844881 -1.918001 -4.314928 0.951783 -2.520522 -1.493289 1.797388 0.447022 3.719628 1.501320 -0.513811 0.342766 9.711720 -22.554853 -3.644392 -1.002710 -57.072085 -9.740428 28.792716 -141.511299 -69.227720 170.984436 -0.060401 -10.994038 -17.362230 17.398319 4.617876 -2.184923 51.697142 10.060236 21.191457 -145.931952 69.945659 -131.753939 -4.124829 5.207415 -29.771299 
-0.238607 0.294847 0.988304 -175.697647 -3.247095 89.056922 -1.289847 -5.646039 -5.217472 -7.257207 -12.700637 4.636696 -4.702108 -5.249789 -16.743504 0.000000 -0.000000 0.000000 -11.750616 -4.836576 -12.557120 -7.004693 -10.272951 29.982981 4.439172 -9.086487 -14.398215 0.000000 -0.000000 0.000000 -2.280396 -0.244464 7.507790 -2.402474 -4.436973 1.019416 -2.706925 -1.059538 1.592972 0.892813 3.364870 1.505991 0.007493 -0.717991 9.288811 -22.113180 -3.022656 -1.687989 -57.717178 -9.795353 28.208729 -142.485895 -68.863673 173.593542 1.626179 -10.633070 -18.539376 16.962166 4.669457 -2.860365 51.249306 11.652241 19.003924 -139.748497 68.197592 -122.869552 -4.867181 4.468305 -24.463958 
-0.225959 0.292040 0.987156 -175.228702 -3.795973 89.312871 -0.897882 -5.905207 -5.431325 -7.078362 -12.624959 3.873716 -4.939523 -5.843184 -15.618478 0.000000 -0.000000 0.000000 -11.488017 -6.594686 -11.685613 -6.509374 -11.731922 27.332939 3.521251 -9.641481 -15.917063 0.000000 -0.000000 0.000000 -2.908256 0.872323 7.194048 -2.762892 -4.148633 0.129780 -2.771444 -0.729357 2.039768 1.146016 2.501239 1.561366 0.577593 -1.955985 9.049616 -21.838011 -2.442559 -1.746655 -58.016891 -9.087293 27.235845 -144.589688 -68.654421 176.348567 4.069214 -10.136743 -18.294440 16.451038 4.851235 -3.275343 51.886535 12.801340 16.570967 -132.062498 66.677912 -113.050170 -5.643681 4.250917 -17.278039 
-0.211764 0.288570 0.986000 -175.258461 -4.059388 89.379547 0.211632 -5.828863 -6.782870 -8.003553 -12.020834 5.543445 -5.090575 -6.930901 -14.794114 0.000000 -0.000000 0.000000 -10.916637 -7.815106 -10.997627 -6.328860 -12.920421 25.587927 2.760864 -9.271923 -17.508444 0.000000 -0.000000 0.000000 -3.308867 2.045186 7.248318 -3.139606 -3.616166 0.017060 -2.858845 0.013924 1.677200 1.279421 1.818896 1.409315 1.414013 -3.540893 8.458046 -21.327439 -1.737036 -2.136903 -58.138624 -7.596297 26.066603 -146.636237 -68.626441 177.845057 5.300856 -9.173667 -18.929566 16.139972 5.230095 -3.635960 53.750607 13.288142 14.415779 -124.445606 64.954156 -103.958966 -5.976109 4.217925 -10.171294 
-0.196736 0.284856 0.985705 -175.294337 -3.674014 89.129468 1.406813 -5.684808 -8.641181 -8.383234 -11.701798 9.064795 -4.841777 -7.316281 -14.970123 0.000000 -0.000000 0.000000 -9.897360 -8.157855 -10.603806 -5.845740 -12.949435 25.114172 2.108684 -9.012672 -18.155569 0.000000 -0.000000 0.000000 -2.988506 3.026658 7.267150 -3.223229 -2.615225 0.356102 -3.208554 0.848265 1.641419 1.651119 1.194082 0.448809 1.562671 -5.559190 8.849360 -21.454902 -0.896140 -2.666835 -57.508641 -6.386410 25.188502 -148.232172 -69.401851 178.467080 7.052602 -8.410340 -20.128804 16.613336 5.334224 -4.195362 55.843019 13.721436 13.512538 -116.512688 63.334709 -95.025446 -7.836153 4.697421 -4.996699 
-0.182081 0.280909 0.986459 -175.145242 -2.820637 88.680507 2.672752 -6.089134 -10.558358 -8.396202 -10.875657 13.071953 -4.483847 -6.796242 -14.857112 0.000000 -0.000000 0.000000 -8.630899 -7.636902 -10.293496 -5.207144 -13.944168 25.273326 1.678006 -9.162185 -18.590748 0.000000 -0.000000 0.000000 -2.237429 3.590569 7.752457 -3.046334 -1.429059 0.550799 -3.452328 1.722263 1.284718 1.924237 0.253093 0.371486 1.519526 -7.222550 8.327899 -22.016538 0.292817 -2.490177 -56.740707 -5.272915 23.859477 -148.514387 -70.622493 178.261942 7.688075 -7.979418 -21.004680 17.611868 5.429215 -3.732225 58.105034 14.354577 12.920117 -108.023275 62.163029 -85.962627 -11.367849 5.807281 -1.174631 
-0.167006 0.277743 0.985754 -174.543781 -1.755878 87.754592 4.136775 -5.833078 -12.742403 -8.900436 -8.954645 18.248098 -3.892493 -6.134199 -14.837016 0.000000 -0.000000 0.000000 -7.002957 -7.592455 -9.249118 -4.731403 -14.958842 25.144623 0.747025 -9.336979 -19.378037 0.000000 -0.000000 0.000000 -1.817394 4.150409 8.444129 -2.477623 -0.730996 0.993584 -3.104727 2.345646 0.957333 1.914305 -0.686709 0.549483 1.645726 -8.392763 7.592667 -22.141319 1.099623 -1.796187 -56.677490 -3.531589 22.149601 -149.497750 -71.798258 179.160914 7.841791 -6.725273 -20.717776 18.529596 6.305735 -2.420544 59.956614 15.195228 11.779339 -99.150229 61.185995 -77.056002 -14.500892 6.402714 2.332394 
